<?xml version="1.0" encoding="utf-8"?>
<!-- Generator: Adobe Illustrator 15.0.0, SVG Export Plug-In . SVG Version: 6.00 Build 0)  -->
<!DOCTYPE svg PUBLIC "-//W3C//DTD SVG 1.1//EN" "http://www.w3.org/Graphics/SVG/1.1/DTD/svg11.dtd">
<svg version="1.1" id="レイヤー_1" xmlns="http://www.w3.org/2000/svg" xmlns:xlink="http://www.w3.org/1999/xlink" x="0px"
	 y="0px" width="841.891px" height="146px" viewBox="0 175.14 841.891 146" enable-background="new 0 175.14 841.891 146"
	 xml:space="preserve">
<title>アセット 4</title>
<g id="レイヤー_2">
	<g id="レイヤー_14">
		<path d="M38.598,190.833H0v119.954h20.067v-50.472h10.695c11.152,0,19.9-1.25,25.957-3.677c6.04-2.357,11.18-6.563,14.685-12.019
			c3.606-5.632,5.472-12.203,5.359-18.891c0.414-9.611-3.418-18.918-10.479-25.452C59.388,194.006,50.087,190.833,38.598,190.833z
			 M51.264,237.723c-4.172,3.179-9.355,4.731-14.589,4.374H20.068v-33.119h15.6c13.818,0,20.524,5.336,20.524,16.271
			C56.526,229.939,54.714,234.528,51.264,237.723z"/>
		<path d="M202.319,206.887c-12.21-11.656-27.734-17.546-46.098-17.546s-33.646,5.89-45.665,17.546
			c-12.021,11.577-18.616,27.682-18.169,44.366c-0.393,16.397,6.163,32.198,18.049,43.501
			c12.078,11.579,28.293,17.829,45.017,17.354c18.723,0,34.488-5.815,46.818-17.329c12.242-11.243,19.04-27.221,18.65-43.838
			C221.277,234.278,214.51,218.254,202.319,206.887z M156.414,293.41c-11.605,0.351-22.864-3.979-31.244-12.017
			c-8.104-7.897-12.532-18.827-12.21-30.14c-0.394-11.51,4.053-22.658,12.258-30.739c8.521-8.104,19.948-12.437,31.701-12.018
			c11.503-0.259,22.626,4.125,30.858,12.161c8.175,7.755,12.719,18.585,12.521,29.851c0.269,11.49-4.271,22.57-12.521,30.571
			c-8.351,8.198-19.666,12.663-31.363,12.377V293.41z"/>
		<path d="M288.529,245.126l-12.737-7.547c-4.473-2.416-8.529-5.531-12.018-9.229c-2.188-2.386-3.429-5.488-3.484-8.726
			c-0.009-3.379,1.716-6.526,4.565-8.34c3.681-2.439,8.039-3.652,12.45-3.461c9.181,0,17.929,3.917,25.957,11.633l2.813,2.716
			v-23.697l-0.842-0.505c-8.157-5.563-17.813-8.513-27.688-8.46c-9.466-0.382-18.725,2.84-25.909,9.013
			c-6.676,5.977-10.37,14.598-10.094,23.554c-0.093,6.153,1.785,12.175,5.358,17.186c4.815,6.009,10.749,11.026,17.474,14.78
			l12.666,7.69c9.612,6.009,14.421,12.329,14.421,18.771c0.045,3.749-1.661,7.306-4.615,9.614c-3.392,2.739-7.66,4.156-12.017,3.989
			c-11.248,0-21.344-5.552-29.972-16.487l-2.956-3.749v26.799l0.674,0.505c9.302,7.128,20.702,10.974,32.422,10.936
			c9.374,0.366,18.521-2.936,25.5-9.205c6.644-6.188,10.267-14.962,9.927-24.034C310.665,265.266,303.214,253.874,288.529,245.126z"
			/>
		<polygon points="328.666,208.978 368.587,208.978 368.587,310.787 388.655,310.787 388.655,208.978 429.273,208.978 
			429.273,190.833 328.666,190.833 		"/>
		<polygon points="472.943,259.594 520.627,259.594 520.627,241.352 472.943,241.352 472.943,209.146 522.284,209.146 
			522.284,191.001 452.946,191.001 452.946,310.619 523.87,310.619 523.87,292.449 472.943,292.449 		"/>
		<path d="M600.852,183.214L545.909,311.58l20.79-0.216l11.296-26.822h47.517l12.017,26.822h20.767L600.852,183.214z
			 M617.292,266.396h-31.245l14.998-36.315L617.292,266.396z"/>
		<path d="M722.656,245.126l-12.737-7.547c-4.473-2.416-8.529-5.531-12.018-9.229c-2.183-2.389-3.414-5.491-3.461-8.726
			c-0.019-3.376,1.696-6.523,4.542-8.34c3.674-2.435,8.022-3.646,12.426-3.461c9.182,0,17.905,3.917,25.934,11.633l2.907,2.716
			v-23.697l-0.744-0.505c-8.158-5.563-17.813-8.513-27.688-8.46c-9.465-0.382-18.723,2.84-25.908,9.013
			c-6.677,5.977-10.371,14.598-10.095,23.554c-0.093,6.153,1.786,12.175,5.359,17.186c4.81,6.006,10.733,11.024,17.448,14.78
			l12.666,7.69c9.613,6.009,14.564,12.329,14.564,18.771c0.046,3.749-1.661,7.306-4.614,9.614
			c-3.396,2.729-7.662,4.146-12.018,3.989c-11.248,0-21.342-5.552-29.97-16.487l-2.957-3.749v26.799l0.674,0.505
			c9.301,7.128,20.702,10.974,32.422,10.936c9.382,0.372,18.539-2.93,25.522-9.205c6.616-6.206,10.228-14.969,9.902-24.034
			C744.793,265.266,737.342,253.874,722.656,245.126z"/>
		<polygon points="790.937,292.449 790.937,259.594 838.62,259.594 838.62,241.352 790.937,241.352 790.937,209.146 
			840.303,209.146 840.303,191.001 770.966,191.001 770.966,310.619 841.89,310.619 841.89,292.449 		"/>
	</g>
</g>
</svg>
