<?xml version="1.0" encoding="utf-8"?>
<!-- Generator: Adobe Illustrator 15.0.0, SVG Export Plug-In . SVG Version: 6.00 Build 0)  -->
<!DOCTYPE svg PUBLIC "-//W3C//DTD SVG 1.1//EN" "http://www.w3.org/Graphics/SVG/1.1/DTD/svg11.dtd">
<svg version="1.1" id="レイヤー_1" xmlns="http://www.w3.org/2000/svg" xmlns:xlink="http://www.w3.org/1999/xlink" x="0px"
	 y="0px" width="841.891px" height="151px" viewBox="0 155.14 841.891 151" enable-background="new 0 155.14 841.891 151"
	 xml:space="preserve">
<title>logo_small</title>
<g id="レイヤー_2">
	<g id="RGB">
		<path d="M38.622,170.935H0v119.97h20.1v-50.514h10.523c8.831,0.453,17.672-0.688,26.099-3.367
			c6.059-2.336,11.218-6.537,14.733-11.997c3.667-5.854,5.499-12.671,5.262-19.574c0.379-9.588-3.468-18.858-10.524-25.361
			C58.47,173.7,48.634,170.433,38.622,170.935z M51.25,217.871c-4.149,3.254-9.37,4.831-14.628,4.42H20.1v-33.148h15.575
			c13.785,0,20.521,5.788,20.521,16.312C56.529,210.131,54.707,214.704,51.25,217.871z"/>
		<path d="M202.369,187.037c-12.437-11.724-29.01-18.043-46.094-17.574c-17.04-0.576-33.589,5.763-45.884,17.574
			c-11.979,11.62-18.543,27.728-18.101,44.41c-0.371,16.371,6.159,32.145,17.996,43.462c12.121,11.525,28.319,17.771,45.041,17.364
			c17.273,0.525,34.073-5.702,46.83-17.364c12.349-11.202,19.222-27.215,18.837-43.884
			C221.302,214.385,214.531,198.398,202.369,187.037z M156.381,273.646c-11.729,0.417-23.125-3.951-31.57-12.104
			c-8.166-7.854-12.669-18.77-12.418-30.097c-0.255-11.598,4.409-22.761,12.839-30.729c8.473-8.108,19.85-12.471,31.57-12.103
			c11.516-0.321,22.66,4.091,30.835,12.208c8.127,7.786,12.597,18.636,12.313,29.887c0.294,11.512-4.248,22.618-12.523,30.624
			C179.136,269.419,167.958,273.852,156.381,273.646z"/>
		<path d="M288.557,225.238l-12.732-7.473c-4.471-2.424-8.521-5.551-11.997-9.262c-2.221-2.366-3.461-5.487-3.474-8.733
			c-0.021-3.364,1.688-6.505,4.525-8.313c3.674-2.429,8.018-3.643,12.418-3.473c9.87,0.295,19.22,4.496,25.993,11.681l2.735,2.632
			v-23.679l-0.842-0.526c-8.131-5.521-17.743-8.458-27.572-8.419c-9.443-0.36-18.682,2.83-25.888,8.945
			c-6.799,5.932-10.646,14.552-10.523,23.573c-0.114,6.181,1.769,12.231,5.366,17.259c4.819,5.99,10.752,10.993,17.471,14.732
			l12.628,7.683c9.682,5.998,14.628,12.313,14.628,18.732c0.034,3.769-1.675,7.342-4.63,9.682c-3.397,2.715-7.65,4.133-11.997,3.999
			c-11.852-0.477-22.795-6.474-29.571-16.207l-3.052-3.999v26.73l0.631,0.525c9.338,7.006,20.74,10.708,32.413,10.523
			c9.402,0.354,18.576-2.969,25.571-9.262c6.558-6.186,10.156-14.879,9.894-23.889C309.89,244.366,301.456,231.533,288.557,225.238z
			"/>
		<polygon points="328.653,189.141 368.642,189.141 368.642,290.905 388.637,290.905 388.637,189.141 429.259,189.141 
			429.259,170.935 328.653,170.935 		"/>
		<polygon points="472.931,239.76 520.603,239.76 520.603,221.554 472.931,221.554 472.931,189.247 522.287,189.247 
			522.287,171.146 452.937,171.146 452.937,290.8 523.865,290.8 523.865,272.594 472.931,272.594 		"/>
		<path d="M600.794,163.359L545.86,291.747h21.048l11.26-26.835h47.567l11.996,26.835h21.048L600.794,163.359z M617.211,246.495
			H585.64l15.049-36.306L617.211,246.495z"/>
		<path d="M722.656,225.238l-12.732-7.473c-4.451-2.452-8.497-5.575-11.997-9.262c-2.14-2.409-3.335-5.512-3.367-8.733
			c-0.021-3.364,1.688-6.505,4.525-8.313c3.702-2.449,8.087-3.665,12.521-3.473c9.845,0.276,19.168,4.482,25.889,11.681l2.842,2.632
			v-23.679l-0.736-0.526c-8.205-5.532-17.886-8.468-27.782-8.419c-9.444-0.36-18.682,2.83-25.889,8.945
			c-6.834,5.905-10.689,14.543-10.523,23.573c-0.101,6.162,1.74,12.2,5.263,17.259c4.844,5.967,10.771,10.966,17.47,14.732
			l12.732,7.683c9.997,5.683,15.26,12.313,15.26,18.732c0.066,3.774-1.648,7.362-4.631,9.682c-3.389,2.73-7.646,4.151-11.997,3.999
			c-12.111-0.246-23.378-6.271-30.308-16.207l-2.947-3.683v26.729l0.737,0.526c9.337,7.006,20.74,10.708,32.412,10.522
			c9.37,0.338,18.503-2.982,25.468-9.261c6.626-6.138,10.239-14.863,9.893-23.889C744.235,244.528,735.725,231.52,722.656,225.238z"
			/>
		<polygon points="790.955,272.594 790.955,239.76 838.628,239.76 838.628,221.554 790.955,221.554 790.955,189.247 
			840.311,189.247 840.311,171.146 770.961,171.146 770.961,290.8 841.89,290.8 841.89,272.594 		"/>
	</g>
</g>
</svg>
