<svg xmlns="http://www.w3.org/2000/svg" viewBox="0 0 80 25.52"><defs><style>.cls-1{fill:#0f1932;}.cls-2{fill:#20a5d2;}</style></defs><title>logo_small</title><g id="レイヤー_2" data-name="レイヤー 2"><g id="RGB"><path class="cls-1" d="M3.67.72H0v11.4H1.91V7.32h1A7,7,0,0,0,5.39,7a2.91,2.91,0,0,0,1.4-1.14A3.29,3.29,0,0,0,7.29,4a3.11,3.11,0,0,0-1-2.41A3.81,3.81,0,0,0,3.67.72Zm1.2,4.46a2,2,0,0,1-1.39.42H1.91V2.45H3.39C4.7,2.45,5.34,3,5.34,4A1.46,1.46,0,0,1,4.87,5.18Z"/><path class="cls-1" d="M19.23,2.25A6.14,6.14,0,0,0,14.85.58a6,6,0,0,0-4.36,1.67A5.67,5.67,0,0,0,8.77,6.47a5.54,5.54,0,0,0,1.71,4.13,6,6,0,0,0,4.28,1.65,6.31,6.31,0,0,0,4.45-1.65A5.46,5.46,0,0,0,21,6.43,5.58,5.58,0,0,0,19.23,2.25Zm-4.37,8.23a4.11,4.11,0,0,1-3-1.15,3.85,3.85,0,0,1-1.18-2.86A3.9,3.9,0,0,1,11.9,3.55a4.15,4.15,0,0,1,3-1.15,4,4,0,0,1,2.93,1.16A3.8,3.8,0,0,1,19,6.4a3.91,3.91,0,0,1-1.19,2.91A4.12,4.12,0,0,1,14.86,10.48Z"/><path class="cls-1" d="M27.42,5.88l-1.21-.71a4.5,4.5,0,0,1-1.14-.88,1.22,1.22,0,0,1-.33-.83.93.93,0,0,1,.43-.79,2,2,0,0,1,1.18-.33,3.54,3.54,0,0,1,2.47,1.11l.26.25V1.45L29,1.4A4.63,4.63,0,0,0,26.38.6a3.59,3.59,0,0,0-2.46.85,2.92,2.92,0,0,0-1,2.24,2.73,2.73,0,0,0,.51,1.64,5.67,5.67,0,0,0,1.66,1.4l1.2.73c.92.57,1.39,1.17,1.39,1.78a1.16,1.16,0,0,1-.44.92,1.74,1.74,0,0,1-1.14.38A3.6,3.6,0,0,1,23.29,9L23,8.62v2.54l.06.05a5,5,0,0,0,3.08,1,3.44,3.44,0,0,0,2.43-.88,3,3,0,0,0,.94-2.27A3.73,3.73,0,0,0,27.42,5.88Z"/><polygon class="cls-1" points="31.23 2.45 35.03 2.45 35.03 12.12 36.93 12.12 36.93 2.45 40.79 2.45 40.79 0.72 31.23 0.72 31.23 2.45"/><polygon class="cls-1" points="44.94 7.26 49.47 7.26 49.47 5.53 44.94 5.53 44.94 2.46 49.63 2.46 49.63 0.74 43.04 0.74 43.04 12.11 49.78 12.11 49.78 10.38 44.94 10.38 44.94 7.26"/><path class="cls-1" d="M57.09,0,51.87,12.2l2,0,1.07-2.55h4.52l1.14,2.55h2Zm1.56,7.9h-3l1.43-3.45Z"/><path class="cls-1" d="M68.67,5.88l-1.21-.71a4.7,4.7,0,0,1-1.14-.88A1.27,1.27,0,0,1,66,3.46a.93.93,0,0,1,.43-.79,2,2,0,0,1,1.19-.33,3.5,3.5,0,0,1,2.46,1.11l.27.25V1.45l-.07-.05A4.68,4.68,0,0,0,67.64.6a3.59,3.59,0,0,0-2.46.85,2.89,2.89,0,0,0-1,2.24,2.79,2.79,0,0,0,.5,1.64,5.8,5.8,0,0,0,1.66,1.4l1.21.73C68.5,8,69,8.63,69,9.24a1.14,1.14,0,0,1-.44.92,1.72,1.72,0,0,1-1.14.38A3.6,3.6,0,0,1,64.54,9l-.28-.35v2.54l.07.05a5,5,0,0,0,3.08,1,3.43,3.43,0,0,0,2.42-.88,2.94,2.94,0,0,0,.94-2.27A3.71,3.71,0,0,0,68.67,5.88Z"/><polygon class="cls-1" points="75.16 10.38 75.16 7.26 79.69 7.26 79.69 5.53 75.16 5.53 75.16 2.46 79.85 2.46 79.85 0.74 73.26 0.74 73.26 12.11 80 12.11 80 10.38 75.16 10.38"/><path class="cls-2" d="M8.75,17a.5.5,0,0,1,.37.15.49.49,0,0,1,.16.37.53.53,0,0,1-.53.52.52.52,0,0,1-.36-.88A.54.54,0,0,1,8.75,17Zm-.43,1.87H9.2v4.44H8.32Z"/><path class="cls-2" d="M13.32,18.82v.57a1.75,1.75,0,0,1,1.33-.66,1.53,1.53,0,0,1,.78.22,1.4,1.4,0,0,1,.54.59,2.84,2.84,0,0,1,.19,1.18v2.54h-.88V20.73a1.7,1.7,0,0,0-.21-1,.79.79,0,0,0-.7-.29,1.25,1.25,0,0,0-1,.62v3.17h-.9V18.82Z"/><path class="cls-2" d="M18.94,22.94V22a4.39,4.39,0,0,0,.76.42,1.74,1.74,0,0,0,.66.16.82.82,0,0,0,.47-.14.38.38,0,0,0,.2-.32.44.44,0,0,0-.13-.32,2.91,2.91,0,0,0-.55-.37,3.77,3.77,0,0,1-1.12-.81,1.16,1.16,0,0,1-.26-.73,1,1,0,0,1,.4-.83,1.54,1.54,0,0,1,1-.33,2.89,2.89,0,0,1,1.34.37V20a2.62,2.62,0,0,0-1.28-.47.71.71,0,0,0-.41.1.34.34,0,0,0-.16.29.44.44,0,0,0,.14.3,3.05,3.05,0,0,0,.5.33l.32.18c.74.42,1.11.88,1.11,1.39a1.13,1.13,0,0,1-.43.9,1.69,1.69,0,0,1-1.1.35,2.48,2.48,0,0,1-.7-.09A4.15,4.15,0,0,1,18.94,22.94Z"/><path class="cls-2" d="M24.31,19.53,26,17.9v.92h1.41v.79H26v2.17c0,.51.21.77.64.77a2,2,0,0,0,1-.32v.82a2.18,2.18,0,0,1-1.1.29,1.43,1.43,0,0,1-1-.36.9.9,0,0,1-.21-.23,1.27,1.27,0,0,1-.14-.35,3.88,3.88,0,0,1-.05-.82v-2h-.78Z"/><path class="cls-2" d="M33.58,20.59v1.89c0,.15.06.22.16.22a1.06,1.06,0,0,0,.5-.23V23a3.25,3.25,0,0,1-.48.27,1.27,1.27,0,0,1-.38.07c-.38,0-.6-.15-.67-.45a1.91,1.91,0,0,1-1.19.44,1.06,1.06,0,0,1-.77-.31,1,1,0,0,1-.31-.77,1.08,1.08,0,0,1,.3-.75A2.06,2.06,0,0,1,31.6,21l1.12-.39v-.24a.71.71,0,0,0-.8-.8,1.92,1.92,0,0,0-1.4.75v-1A1.8,1.8,0,0,1,32,18.73a1.68,1.68,0,0,1,1.15.38,1.24,1.24,0,0,1,.27.32,1.28,1.28,0,0,1,.14.4A6.19,6.19,0,0,1,33.58,20.59Zm-.86,1.79V21.06l-.59.23a1.93,1.93,0,0,0-.63.36.58.58,0,0,0-.19.45.61.61,0,0,0,.18.45.6.6,0,0,0,.45.17A1.1,1.1,0,0,0,32.72,22.38Z"/><path class="cls-2" d="M36.81,16.52h.88v6.74h-.88Z"/><path class="cls-2" d="M41.15,16.52H42v6.74h-.88Z"/><path class="cls-2" d="M47.79,19.53l1.65-1.63v.92h1.4v.79h-1.4v2.17c0,.51.21.77.63.77a2,2,0,0,0,1-.32v.82a2.23,2.23,0,0,1-1.1.29A1.45,1.45,0,0,1,49,23a1.51,1.51,0,0,1-.21-.23,1.28,1.28,0,0,1-.13-.35,3.69,3.69,0,0,1-.06-.82v-2h-.77Z"/><path class="cls-2" d="M57,18.82h1l-3.14,6.7h-1l1.5-3.21-1.71-3.49h1l1.2,2.51Z"/><path class="cls-2" d="M60.52,25.52v-6.7h1.53a2.68,2.68,0,0,1,1.84.59,2.08,2.08,0,0,1,.66,1.64,2.26,2.26,0,0,1-.62,1.64,2.1,2.1,0,0,1-1.58.65,3,3,0,0,1-.94-.19v2.37ZM62,19.64h-.63v2.73a1.84,1.84,0,0,0,.85.21,1.29,1.29,0,0,0,1-.43,1.74,1.74,0,0,0,.21-1.87,1.15,1.15,0,0,0-.51-.49A2.24,2.24,0,0,0,62,19.64Z"/><path class="cls-2" d="M71.27,21.12H68.15a1.45,1.45,0,0,0,.43,1,1.41,1.41,0,0,0,1,.38A2.67,2.67,0,0,0,71.2,22v.85a2.73,2.73,0,0,1-.81.39,3.18,3.18,0,0,1-.93.12A2,2,0,0,1,68.27,23a2.13,2.13,0,0,1-.72-.82A2.37,2.37,0,0,1,67.27,21a2.33,2.33,0,0,1,.58-1.65,1.93,1.93,0,0,1,1.49-.64,1.76,1.76,0,0,1,1.41.62A2.46,2.46,0,0,1,71.27,21Zm-3.1-.53H70.4a1.2,1.2,0,0,0-.31-.81,1,1,0,0,0-.75-.28,1.08,1.08,0,0,0-.78.28A1.41,1.41,0,0,0,68.17,20.59Z"/></g></g></svg>