<?xml version="1.0" encoding="utf-8"?>
<!-- Generator: Adobe Illustrator 15.0.0, SVG Export Plug-In . SVG Version: 6.00 Build 0)  -->
<!DOCTYPE svg PUBLIC "-//W3C//DTD SVG 1.1//EN" "http://www.w3.org/Graphics/SVG/1.1/DTD/svg11.dtd">
<svg version="1.1" id="レイヤー_1" xmlns="http://www.w3.org/2000/svg" xmlns:xlink="http://www.w3.org/1999/xlink" x="0px"
	 y="0px" width="841.891px" height="151px" viewBox="0 0 841.891 151" enable-background="new 0 0 841.891 151"
	 xml:space="preserve">
<title>logo_white</title>
<g id="レイヤー_2">
	<g id="RGB">
		<path fill="#FFFFFF" d="M38.599,18.656H0V138.61h20.067V88.138h10.695c11.152,0,19.9-1.25,25.957-3.676
			c6.04-2.357,11.18-6.563,14.685-12.02c3.606-5.633,5.472-12.203,5.359-18.891c0.414-9.611-3.418-18.918-10.479-25.453
			C59.389,21.829,50.087,18.656,38.599,18.656z M51.265,65.546c-4.172,3.18-9.355,4.731-14.589,4.375H20.068V36.802h15.6
			c13.818,0,20.524,5.336,20.524,16.271C56.526,57.763,54.714,62.351,51.265,65.546z"/>
		<path fill="#FFFFFF" d="M202.319,34.71c-12.21-11.656-27.734-17.546-46.098-17.546c-18.364,0-33.646,5.89-45.665,17.546
			C98.536,46.287,91.94,62.392,92.388,79.076c-0.393,16.397,6.163,32.198,18.049,43.501c12.078,11.579,28.293,17.829,45.017,17.354
			c18.723,0,34.488-5.815,46.818-17.329c12.242-11.243,19.04-27.221,18.65-43.838C221.277,62.101,214.51,46.077,202.319,34.71z
			 M156.415,121.233c-11.605,0.352-22.864-3.979-31.244-12.018c-8.104-7.896-12.532-18.826-12.21-30.14
			c-0.394-11.51,4.053-22.657,12.258-30.739c8.521-8.104,19.948-12.437,31.701-12.018c11.503-0.26,22.626,4.125,30.858,12.161
			c8.175,7.755,12.719,18.585,12.521,29.851c0.269,11.49-4.271,22.57-12.521,30.571c-8.351,8.198-19.666,12.663-31.363,12.377
			V121.233z"/>
		<path fill="#FFFFFF" d="M288.529,72.949l-12.737-7.547c-4.473-2.416-8.529-5.531-12.018-9.229
			c-2.188-2.386-3.429-5.488-3.484-8.726c-0.009-3.379,1.716-6.526,4.565-8.34c3.681-2.438,8.039-3.652,12.45-3.461
			c9.181,0,17.929,3.917,25.957,11.633l2.813,2.716V26.298l-0.842-0.504c-8.157-5.563-17.813-8.514-27.688-8.461
			c-9.466-0.382-18.725,2.84-25.909,9.014c-6.676,5.977-10.37,14.598-10.094,23.554c-0.093,6.153,1.785,12.175,5.358,17.187
			c4.815,6.008,10.749,11.025,17.474,14.779l12.666,7.689c9.612,6.01,14.421,12.33,14.421,18.771
			c0.045,3.749-1.661,7.307-4.615,9.614c-3.392,2.739-7.66,4.155-12.017,3.989c-11.248,0-21.344-5.553-29.972-16.487l-2.956-3.749
			v26.799l0.674,0.505c9.302,7.128,20.702,10.975,32.422,10.937c9.374,0.365,18.521-2.937,25.5-9.205
			c6.644-6.188,10.267-14.963,9.927-24.034C310.666,93.089,303.214,81.697,288.529,72.949z"/>
		<polygon fill="#FFFFFF" points="328.667,36.802 368.587,36.802 368.587,138.61 388.656,138.61 388.656,36.802 429.273,36.802 
			429.273,18.656 328.667,18.656 		"/>
		<polygon fill="#FFFFFF" points="472.943,87.417 520.627,87.417 520.627,69.175 472.943,69.175 472.943,36.97 522.285,36.97 
			522.285,18.824 452.947,18.824 452.947,138.442 523.871,138.442 523.871,120.272 472.943,120.272 		"/>
		<path fill="#FFFFFF" d="M600.854,11.037L545.91,139.403l20.789-0.216l11.297-26.822h47.516l12.018,26.822h20.768L600.854,11.037z
			 M617.293,94.22h-31.246l14.998-36.315L617.293,94.22z"/>
		<path fill="#FFFFFF" d="M722.656,72.949l-12.736-7.547c-4.473-2.416-8.529-5.531-12.018-9.229
			c-2.184-2.389-3.414-5.49-3.461-8.726c-0.02-3.376,1.695-6.522,4.541-8.34c3.674-2.435,8.021-3.646,12.426-3.461
			c9.182,0,17.906,3.917,25.934,11.633l2.908,2.716V26.298l-0.744-0.504c-8.158-5.563-17.813-8.514-27.688-8.461
			c-9.465-0.382-18.725,2.84-25.908,9.014c-6.678,5.977-10.371,14.598-10.096,23.554c-0.094,6.153,1.787,12.175,5.359,17.187
			c4.811,6.006,10.732,11.023,17.447,14.779l12.666,7.689c9.613,6.01,14.564,12.33,14.564,18.771
			c0.047,3.749-1.66,7.307-4.613,9.614c-3.396,2.729-7.662,4.146-12.02,3.989c-11.248,0-21.342-5.553-29.969-16.487l-2.957-3.749
			v26.799l0.674,0.505c9.301,7.128,20.701,10.975,32.422,10.937c9.383,0.372,18.539-2.931,25.521-9.205
			c6.617-6.206,10.229-14.969,9.902-24.034C744.793,93.089,737.342,81.697,722.656,72.949z"/>
		<polygon fill="#FFFFFF" points="790.938,120.272 790.938,87.417 838.621,87.417 838.621,69.175 790.938,69.175 790.938,36.97 
			840.303,36.97 840.303,18.824 770.967,18.824 770.967,138.442 841.891,138.442 841.891,120.272 		"/>
	</g>
</g>
</svg>
