<svg xmlns="http://www.w3.org/2000/svg" viewBox="0 0 350.29 95.22"><defs><style>.cls-1{fill:#0d1831;}.cls-2{fill:#20a5d2;}</style></defs><title>アセット 4</title><g id="レイヤー_2" data-name="レイヤー 2"><g id="レイヤー_14" data-name="レイヤー 14"><path class="cls-1" d="M16.06,3.17H0V53.08H8.35v-21H12.8c4.64,0,8.28-.52,10.8-1.53a12.79,12.79,0,0,0,6.11-5,14.14,14.14,0,0,0,2.23-7.86A13.63,13.63,0,0,0,27.58,7.1C24.71,4.49,20.84,3.17,16.06,3.17Zm5.27,19.51a9,9,0,0,1-6.07,1.82H8.35V10.72h6.49c5.75,0,8.54,2.22,8.54,6.77A6.45,6.45,0,0,1,21.33,22.68Z"/><path class="cls-1" d="M84.18,9.85C79.1,5,72.64,2.55,65,2.55S51,5,46,9.85a24.71,24.71,0,0,0-7.56,18.46,24.18,24.18,0,0,0,7.51,18.1,26,26,0,0,0,18.73,7.22c7.79,0,14.35-2.42,19.48-7.21a24,24,0,0,0,7.76-18.24A24.35,24.35,0,0,0,84.18,9.85Zm-19.1,36a18,18,0,0,1-13-5A16.84,16.84,0,0,1,47,28.31,17.13,17.13,0,0,1,52.1,15.52a18.2,18.2,0,0,1,13.19-5,17.81,17.81,0,0,1,12.84,5.06A16.72,16.72,0,0,1,83.34,28a17.16,17.16,0,0,1-5.21,12.72A18,18,0,0,1,65.08,45.87Z"/><path class="cls-1" d="M120.05,25.76l-5.3-3.14a19.83,19.83,0,0,1-5-3.84,5.51,5.51,0,0,1-1.45-3.63,4.1,4.1,0,0,1,1.9-3.47,8.69,8.69,0,0,1,5.18-1.44c3.82,0,7.46,1.63,10.8,4.84l1.17,1.13V6.35L127,6.14a20.26,20.26,0,0,0-11.52-3.52,15.58,15.58,0,0,0-10.78,3.75,12.63,12.63,0,0,0-4.2,9.8,12,12,0,0,0,2.23,7.15A24.82,24.82,0,0,0,110,29.47l5.27,3.2c4,2.5,6,5.13,6,7.81a5,5,0,0,1-1.92,4,7.5,7.5,0,0,1-5,1.66c-4.68,0-8.88-2.31-12.47-6.86l-1.23-1.56V48.87l.28.21a22.06,22.06,0,0,0,13.49,4.55,15,15,0,0,0,10.61-3.83,13,13,0,0,0,4.13-10C129.26,34.14,126.16,29.4,120.05,25.76Z"/><polygon class="cls-1" points="136.75 10.72 153.36 10.72 153.36 53.08 161.71 53.08 161.71 10.72 178.61 10.72 178.61 3.17 136.75 3.17 136.75 10.72"/><polygon class="cls-1" points="196.78 31.78 216.62 31.78 216.62 24.19 196.78 24.19 196.78 10.79 217.31 10.79 217.31 3.24 188.46 3.24 188.46 53.01 217.97 53.01 217.97 45.45 196.78 45.45 196.78 31.78"/><path class="cls-1" d="M250,0,227.14,53.41l8.65-.09,4.7-11.16h19.77l5,11.16,8.64,0Zm6.84,34.61h-13l6.24-15.11Z"/><path class="cls-1" d="M300.68,25.76l-5.3-3.14a19.83,19.83,0,0,1-5-3.84,5.5,5.5,0,0,1-1.44-3.63,4.09,4.09,0,0,1,1.89-3.47A8.7,8.7,0,0,1,296,10.24c3.82,0,7.45,1.63,10.79,4.84L308,16.21V6.35l-.31-.21a20.26,20.26,0,0,0-11.52-3.52,15.58,15.58,0,0,0-10.78,3.75,12.63,12.63,0,0,0-4.2,9.8,12,12,0,0,0,2.23,7.15,24.82,24.82,0,0,0,7.26,6.15l5.27,3.2c4,2.5,6.06,5.13,6.06,7.81a5,5,0,0,1-1.92,4,7.55,7.55,0,0,1-5,1.66c-4.68,0-8.88-2.31-12.47-6.86l-1.23-1.56V48.87l.28.21a22.06,22.06,0,0,0,13.49,4.55,15,15,0,0,0,10.62-3.83,13.07,13.07,0,0,0,4.12-10C309.89,34.14,306.79,29.4,300.68,25.76Z"/><polygon class="cls-1" points="329.09 45.45 329.09 31.78 348.93 31.78 348.93 24.19 329.09 24.19 329.09 10.79 349.63 10.79 349.63 3.24 320.78 3.24 320.78 53.01 350.29 53.01 350.29 45.45 329.09 45.45"/><path class="cls-2" d="M86.21,70.94a1.46,1.46,0,0,1,1.05.42,1.36,1.36,0,0,1,.44,1,1.39,1.39,0,0,1-.44,1,1.44,1.44,0,0,1-1.05.44,1.37,1.37,0,0,1-1-.45,1.41,1.41,0,0,1,0-2.05A1.4,1.4,0,0,1,86.21,70.94ZM85,76.23h2.49V88.81H85Z"/><path class="cls-2" d="M99.15,76.23v1.6A5,5,0,0,1,102.94,76a4.26,4.26,0,0,1,2.19.61,4,4,0,0,1,1.53,1.67,7.82,7.82,0,0,1,.53,3.36v7.19H104.7V81.64a4.91,4.91,0,0,0-.58-2.75,2.27,2.27,0,0,0-2-.83,3.6,3.6,0,0,0-3,1.76v9H96.61V76.23Z"/><path class="cls-2" d="M115.09,87.9V85.23a11.16,11.16,0,0,0,2.15,1.19,5,5,0,0,0,1.85.46,2.35,2.35,0,0,0,1.34-.38,1.09,1.09,0,0,0,.56-.92,1.24,1.24,0,0,0-.36-.91,8.18,8.18,0,0,0-1.56-1,11.09,11.09,0,0,1-3.15-2.29,3.3,3.3,0,0,1-.75-2.08,2.91,2.91,0,0,1,1.13-2.36,4.46,4.46,0,0,1,2.9-.92A8,8,0,0,1,123,77v2.46a7.61,7.61,0,0,0-3.62-1.34,2,2,0,0,0-1.17.31,1,1,0,0,0-.45.82,1.16,1.16,0,0,0,.41.83,7.49,7.49,0,0,0,1.41,1l.89.5q3.15,1.78,3.15,3.94A3.14,3.14,0,0,1,122.4,88a4.72,4.72,0,0,1-3.11,1,7.56,7.56,0,0,1-2-.24A13.46,13.46,0,0,1,115.09,87.9Z"/><path class="cls-2" d="M130.31,78.23l4.68-4.6v2.6h4v2.24h-4v6.16c0,1.43.6,2.15,1.79,2.15a5.49,5.49,0,0,0,2.83-.89v2.33a6.27,6.27,0,0,1-3.13.81,4.15,4.15,0,0,1-2.84-1,2.7,2.7,0,0,1-.59-.68,3.33,3.33,0,0,1-.39-1,10.69,10.69,0,0,1-.16-2.32V78.47h-2.19Z"/><path class="cls-2" d="M156.58,81.25v5.34c0,.43.15.64.44.64a3,3,0,0,0,1.41-.67v1.52a7.94,7.94,0,0,1-1.36.75A3,3,0,0,1,156,89q-1.6,0-1.89-1.26A5.42,5.42,0,0,1,150.73,89a3,3,0,0,1-2.19-.87,3,3,0,0,1-.87-2.18,3.09,3.09,0,0,1,.85-2.13A5.78,5.78,0,0,1,151,82.34l3.19-1.09v-.67a2,2,0,0,0-2.27-2.27,5.48,5.48,0,0,0-4,2.1V77.69A5.17,5.17,0,0,1,152.07,76a4.82,4.82,0,0,1,3.27,1.07,3.45,3.45,0,0,1,.74.91,3.1,3.1,0,0,1,.41,1.13A16.7,16.7,0,0,1,156.58,81.25Zm-2.44,5.07V82.59l-1.67.64a5.69,5.69,0,0,0-1.8,1,1.84,1.84,0,0,0,0,2.55,1.78,1.78,0,0,0,1.3.49A3.13,3.13,0,0,0,154.14,86.32Z"/><path class="cls-2" d="M165.73,69.71h2.48v19.1h-2.48Z"/><path class="cls-2" d="M178,69.71h2.49v19.1H178Z"/><path class="cls-2" d="M196.84,78.23l4.68-4.6v2.6h4v2.24h-4v6.16c0,1.43.6,2.15,1.79,2.15a5.49,5.49,0,0,0,2.83-.89v2.33A6.27,6.27,0,0,1,203,89a4.15,4.15,0,0,1-2.84-1,2.7,2.7,0,0,1-.59-.68,3.33,3.33,0,0,1-.39-1,10.69,10.69,0,0,1-.16-2.32V78.47h-2.19Z"/><path class="cls-2" d="M222.93,76.23h2.8l-8.92,19H214l4.27-9.11-4.86-9.88h2.83l3.4,7.1Z"/><path class="cls-2" d="M232.91,95.22v-19h4.36a7.5,7.5,0,0,1,5.21,1.67,5.93,5.93,0,0,1,1.86,4.66,6.41,6.41,0,0,1-1.75,4.65A6,6,0,0,1,238.12,89a7.82,7.82,0,0,1-2.67-.54v6.73Zm4.3-16.67h-1.76v7.74a5.26,5.26,0,0,0,2.41.59,3.69,3.69,0,0,0,2.85-1.22,4.46,4.46,0,0,0,1.12-3.13,4.39,4.39,0,0,0-.53-2.17A3.22,3.22,0,0,0,239.87,79,6.56,6.56,0,0,0,237.21,78.55Z"/><path class="cls-2" d="M263.39,82.74h-8.84a4.1,4.1,0,0,0,1.21,2.87,4,4,0,0,0,2.88,1.06,7.51,7.51,0,0,0,4.54-1.53v2.44a8.45,8.45,0,0,1-2.28,1.09,9.45,9.45,0,0,1-2.65.33,6,6,0,0,1-3.36-.86,6.35,6.35,0,0,1-2.06-2.32,7.13,7.13,0,0,1-.77-3.37,6.68,6.68,0,0,1,1.63-4.67,5.42,5.42,0,0,1,4.22-1.8,5,5,0,0,1,4,1.75,7,7,0,0,1,1.49,4.69Zm-8.79-1.49h6.33A3.45,3.45,0,0,0,260,79a2.82,2.82,0,0,0-2.13-.81,3.06,3.06,0,0,0-2.19.81A4,4,0,0,0,254.6,81.25Z"/></g></g></svg>